<svg xmlns="http://www.w3.org/2000/svg" width="41" height="41" viewBox="0 0 41 41" fill="none">
  <g clip-path="url(#clip0_526_9299)">
    <path d="M40.5 20.25C40.5 9.2043 31.5457 0.25 20.5 0.25C9.4543 0.25 0.5 9.2043 0.5 20.25C0.5 31.2957 9.4543 40.25 20.5 40.25C31.5457 40.25 40.5 31.2957 40.5 20.25Z" fill="#303031"/>
    <mask id="mask0_526_9299" style="mask-type:alpha" maskUnits="userSpaceOnUse" x="8" y="8" width="25" height="25">
      <path d="M32.5 8.25H8.5V32.25H32.5V8.25Z" fill="#D9D9D9"/>
    </mask>
    <g mask="url(#mask0_526_9299)">
      <path d="M13.5 19.25C12.95 19.25 12.4792 19.0542 12.0875 18.6625C11.6958 18.2708 11.5 17.8 11.5 17.25V13.25C11.5 12.7 11.6958 12.2292 12.0875 11.8375C12.4792 11.4458 12.95 11.25 13.5 11.25H17.5C18.05 11.25 18.5208 11.4458 18.9125 11.8375C19.3042 12.2292 19.5 12.7 19.5 13.25V17.25C19.5 17.8 19.3042 18.2708 18.9125 18.6625C18.5208 19.0542 18.05 19.25 17.5 19.25H13.5ZM13.5 29.25C12.95 29.25 12.4792 29.0542 12.0875 28.6625C11.6958 28.2708 11.5 27.8 11.5 27.25V23.25C11.5 22.7 11.6958 22.2292 12.0875 21.8375C12.4792 21.4458 12.95 21.25 13.5 21.25H17.5C18.05 21.25 18.5208 21.4458 18.9125 21.8375C19.3042 22.2292 19.5 22.7 19.5 23.25V27.25C19.5 27.8 19.3042 28.2708 18.9125 28.6625C18.5208 29.0542 18.05 29.25 17.5 29.25H13.5ZM23.5 19.25C22.95 19.25 22.4792 19.0542 22.0875 18.6625C21.6958 18.2708 21.5 17.8 21.5 17.25V13.25C21.5 12.7 21.6958 12.2292 22.0875 11.8375C22.4792 11.4458 22.95 11.25 23.5 11.25H27.5C28.05 11.25 28.5208 11.4458 28.9125 11.8375C29.3042 12.2292 29.5 12.7 29.5 13.25V17.25C29.5 17.8 29.3042 18.2708 28.9125 18.6625C28.5208 19.0542 28.05 19.25 27.5 19.25H23.5ZM23.5 29.25C22.95 29.25 22.4792 29.0542 22.0875 28.6625C21.6958 28.2708 21.5 27.8 21.5 27.25V23.25C21.5 22.7 21.6958 22.2292 22.0875 21.8375C22.4792 21.4458 22.95 21.25 23.5 21.25H27.5C28.05 21.25 28.5208 21.4458 28.9125 21.8375C29.3042 22.2292 29.5 22.7 29.5 23.25V27.25C29.5 27.8 29.3042 28.2708 28.9125 28.6625C28.5208 29.0542 28.05 29.25 27.5 29.25H23.5Z" fill="#2B75DC"/>
    </g>
  </g>
  <defs>
    <clipPath id="clip0_526_9299">
      <rect width="40" height="40" fill="white" transform="translate(0.5 0.25)"/>
    </clipPath>
  </defs>
</svg>