<svg xmlns="http://www.w3.org/2000/svg" width="41" height="40" viewBox="0 0 41 40" fill="none">
  <g clip-path="url(#clip0_509_7275)">
    <path d="M40.5 20C40.5 8.9543 31.5457 0 20.5 0C9.4543 0 0.5 8.9543 0.5 20C0.5 31.0457 9.4543 40 20.5 40C31.5457 40 40.5 31.0457 40.5 20Z" fill="#303031"/>
    <mask id="mask0_509_7275" style="mask-type:alpha" maskUnits="userSpaceOnUse" x="8" y="8" width="25" height="24">
      <path d="M32.5 8H8.5V32H32.5V8Z" fill="#D9D9D9"/>
    </mask>
    <g mask="url(#mask0_509_7275)">
      <path d="M9.5 26C9.21667 26 8.97917 25.9042 8.7875 25.7125C8.59583 25.5208 8.5 25.2833 8.5 25V24.425C8.5 23.7083 8.86667 23.125 9.6 22.675C10.3333 22.225 11.3 22 12.5 22C12.7167 22 12.925 22.0042 13.125 22.0125C13.325 22.0208 13.5167 22.0417 13.7 22.075C13.4667 22.425 13.2917 22.7917 13.175 23.175C13.0583 23.5583 13 23.9583 13 24.375V26H9.5ZM15.5 26C15.2167 26 14.9792 25.9042 14.7875 25.7125C14.5958 25.5208 14.5 25.2833 14.5 25V24.375C14.5 23.8417 14.6458 23.3542 14.9375 22.9125C15.2292 22.4708 15.6417 22.0833 16.175 21.75C16.7083 21.4167 17.3458 21.1667 18.0875 21C18.8292 20.8333 19.6333 20.75 20.5 20.75C21.3833 20.75 22.1958 20.8333 22.9375 21C23.6792 21.1667 24.3167 21.4167 24.85 21.75C25.3833 22.0833 25.7917 22.4708 26.075 22.9125C26.3583 23.3542 26.5 23.8417 26.5 24.375V25C26.5 25.2833 26.4042 25.5208 26.2125 25.7125C26.0208 25.9042 25.7833 26 25.5 26H15.5ZM28 26V24.375C28 23.9417 27.9458 23.5333 27.8375 23.15C27.7292 22.7667 27.5667 22.4083 27.35 22.075C27.5333 22.0417 27.7208 22.0208 27.9125 22.0125C28.1042 22.0042 28.3 22 28.5 22C29.7 22 30.6667 22.2208 31.4 22.6625C32.1333 23.1042 32.5 23.6917 32.5 24.425V25C32.5 25.2833 32.4042 25.5208 32.2125 25.7125C32.0208 25.9042 31.7833 26 31.5 26H28ZM12.5 21C11.95 21 11.4792 20.8042 11.0875 20.4125C10.6958 20.0208 10.5 19.55 10.5 19C10.5 18.4333 10.6958 17.9583 11.0875 17.575C11.4792 17.1917 11.95 17 12.5 17C13.0667 17 13.5417 17.1917 13.925 17.575C14.3083 17.9583 14.5 18.4333 14.5 19C14.5 19.55 14.3083 20.0208 13.925 20.4125C13.5417 20.8042 13.0667 21 12.5 21ZM28.5 21C27.95 21 27.4792 20.8042 27.0875 20.4125C26.6958 20.0208 26.5 19.55 26.5 19C26.5 18.4333 26.6958 17.9583 27.0875 17.575C27.4792 17.1917 27.95 17 28.5 17C29.0667 17 29.5417 17.1917 29.925 17.575C30.3083 17.9583 30.5 18.4333 30.5 19C30.5 19.55 30.3083 20.0208 29.925 20.4125C29.5417 20.8042 29.0667 21 28.5 21ZM20.5 20C19.6667 20 18.9583 19.7083 18.375 19.125C17.7917 18.5417 17.5 17.8333 17.5 17C17.5 16.15 17.7917 15.4375 18.375 14.8625C18.9583 14.2875 19.6667 14 20.5 14C21.35 14 22.0625 14.2875 22.6375 14.8625C23.2125 15.4375 23.5 16.15 23.5 17C23.5 17.8333 23.2125 18.5417 22.6375 19.125C22.0625 19.7083 21.35 20 20.5 20Z" fill="#2B75DC"/>
    </g>
  </g>
  <defs>
    <clipPath id="clip0_509_7275">
      <rect width="40" height="40" fill="white" transform="translate(0.5)"/>
    </clipPath>
  </defs>
</svg>