<svg xmlns="http://www.w3.org/2000/svg" width="41" height="40" viewBox="0 0 41 40" fill="none">
  <g clip-path="url(#clip0_509_7263)">
    <path d="M40.5 20C40.5 8.9543 31.5457 0 20.5 0C9.4543 0 0.5 8.9543 0.5 20C0.5 31.0457 9.4543 40 20.5 40C31.5457 40 40.5 31.0457 40.5 20Z" fill="#303031"/>
    <mask id="mask0_509_7263" style="mask-type:alpha" maskUnits="userSpaceOnUse" x="8" y="8" width="25" height="24">
      <path d="M32.5 8H8.5V32H32.5V8Z" fill="#D9D9D9"/>
    </mask>
    <g mask="url(#mask0_509_7263)">
      <path d="M20.5 20C19.4 20 18.4583 19.6083 17.675 18.825C16.8917 18.0417 16.5 17.1 16.5 16C16.5 14.9 16.8917 13.9583 17.675 13.175C18.4583 12.3917 19.4 12 20.5 12C21.6 12 22.5417 12.3917 23.325 13.175C24.1083 13.9583 24.5 14.9 24.5 16C24.5 17.1 24.1083 18.0417 23.325 18.825C22.5417 19.6083 21.6 20 20.5 20ZM12.5 26V25.2C12.5 24.6333 12.6458 24.1125 12.9375 23.6375C13.2292 23.1625 13.6167 22.8 14.1 22.55C15.1333 22.0333 16.1833 21.6458 17.25 21.3875C18.3167 21.1292 19.4 21 20.5 21C21.6 21 22.6833 21.1292 23.75 21.3875C24.8167 21.6458 25.8667 22.0333 26.9 22.55C27.3833 22.8 27.7708 23.1625 28.0625 23.6375C28.3542 24.1125 28.5 24.6333 28.5 25.2V26C28.5 26.55 28.3042 27.0208 27.9125 27.4125C27.5208 27.8042 27.05 28 26.5 28H14.5C13.95 28 13.4792 27.8042 13.0875 27.4125C12.6958 27.0208 12.5 26.55 12.5 26Z" fill="#2B75DC"/>
    </g>
  </g>
  <defs>
    <clipPath id="clip0_509_7263">
      <rect width="40" height="40" fill="white" transform="translate(0.5)"/>
    </clipPath>
  </defs>
</svg>