<svg xmlns="http://www.w3.org/2000/svg" width="41" height="40" viewBox="0 0 41 40" fill="none">
  <g clip-path="url(#clip0_509_7287)">
    <path d="M40.5 20C40.5 8.9543 31.5457 0 20.5 0C9.4543 0 0.5 8.9543 0.5 20C0.5 31.0457 9.4543 40 20.5 40C31.5457 40 40.5 31.0457 40.5 20Z" fill="#303031"/>
    <mask id="mask0_509_7287" style="mask-type:alpha" maskUnits="userSpaceOnUse" x="8" y="8" width="25" height="24">
      <path d="M32.5 8H8.5V32H32.5V8Z" fill="#D9D9D9"/>
    </mask>
    <g mask="url(#mask0_509_7287)">
      <path d="M14.6248 20.1499C15.0581 19.0499 15.579 17.9916 16.1873 16.9749C16.7956 15.9582 17.4831 14.9999 18.2498 14.0999L16.9498 13.8249C16.6165 13.7582 16.2915 13.7749 15.9748 13.8749C15.6581 13.9749 15.3831 14.1416 15.1498 14.3749L11.9998 17.5249C11.7498 17.7749 11.654 18.0749 11.7123 18.4249C11.7706 18.7749 11.9665 19.0166 12.2998 19.1499L14.6248 20.1499ZM29.3248 10.3999C27.5581 10.3166 25.879 10.6582 24.2873 11.4249C22.6956 12.1916 21.2748 13.1999 20.0248 14.4499C19.2248 15.2499 18.5206 16.1166 17.9123 17.0499C17.304 17.9832 16.7748 18.9666 16.3248 19.9999C16.2415 20.2166 16.1998 20.4374 16.1998 20.6624C16.1998 20.8874 16.2831 21.0832 16.4498 21.2499L19.5748 24.3749C19.7415 24.5416 19.9373 24.6249 20.1623 24.6249C20.3873 24.6249 20.6081 24.5832 20.8248 24.4999C21.8581 24.0499 22.8415 23.5207 23.7748 22.9124C24.7081 22.3041 25.5748 21.5999 26.3748 20.7999C27.6248 19.5499 28.6331 18.1291 29.3998 16.5374C30.1665 14.9457 30.5081 13.2666 30.4248 11.4999C30.4248 11.3666 30.3915 11.2332 30.3248 11.0999C30.2581 10.9666 30.1748 10.8499 30.0748 10.7499C29.9748 10.6499 29.8581 10.5666 29.7248 10.4999C29.5915 10.4332 29.4581 10.3999 29.3248 10.3999ZM22.9748 17.8499C22.5915 17.4666 22.3998 16.9957 22.3998 16.4374C22.3998 15.8791 22.5915 15.4082 22.9748 15.0249C23.3581 14.6416 23.829 14.4499 24.3873 14.4499C24.9456 14.4499 25.4165 14.6416 25.7998 15.0249C26.1831 15.4082 26.3748 15.8791 26.3748 16.4374C26.3748 16.9957 26.1831 17.4666 25.7998 17.8499C25.4165 18.2332 24.9456 18.4249 24.3873 18.4249C23.829 18.4249 23.3581 18.2332 22.9748 17.8499ZM20.6748 26.1999L21.6748 28.5249C21.8081 28.8582 22.0498 29.0582 22.3998 29.1249C22.7498 29.1916 23.0498 29.0999 23.2998 28.8499L26.4498 25.6999C26.6831 25.4666 26.8498 25.1874 26.9498 24.8624C27.0498 24.5374 27.0665 24.2082 26.9998 23.8749L26.7498 22.5749C25.8331 23.3416 24.8706 24.0291 23.8623 24.6374C22.854 25.2457 21.7915 25.7666 20.6748 26.1999ZM12.5498 24.0499C13.1331 23.4666 13.8415 23.1707 14.6748 23.1624C15.5081 23.1541 16.2165 23.4416 16.7998 24.0249C17.3831 24.6082 17.6748 25.3166 17.6748 26.1499C17.6748 26.9832 17.3831 27.6916 16.7998 28.2749C15.9998 29.0749 15.054 29.5499 13.9623 29.6999C12.8706 29.8499 11.7748 29.9999 10.6748 30.1499C10.8248 29.0499 10.979 27.9541 11.1373 26.8624C11.2956 25.7707 11.7665 24.8332 12.5498 24.0499Z" fill="#2B75DC"/>
    </g>
  </g>
  <defs>
    <clipPath id="clip0_509_7287">
      <rect width="40" height="40" fill="white" transform="translate(0.5)"/>
    </clipPath>
  </defs>
</svg>