<svg xmlns="http://www.w3.org/2000/svg" width="48" height="9" viewBox="0 0 48 9" fill="none">
  <path d="M9.36021 5.33544H8.46711C8.24287 5.95404 7.93743 6.49531 7.5508 6.95927C6.63837 8.04182 5.47462 8.58309 4.05957 8.58309C2.84557 8.58309 1.86354 8.21967 1.11348 7.49281C0.371161 6.75822 0 5.80712 0 4.63951C0 3.36365 0.456219 2.27336 1.36866 1.36866C2.28883 0.456218 3.39844 0 4.6975 0C5.75686 0 6.6229 0.274504 7.29563 0.823513C7.97609 1.37252 8.42071 2.10324 8.62949 3.01568H7.23764C7.22991 3.00795 7.22217 2.99248 7.21444 2.96929C7.20671 2.94609 7.19897 2.92289 7.19124 2.89969C7.13711 2.76051 7.05979 2.61746 6.95927 2.47054C6.86648 2.31589 6.71956 2.14191 6.51851 1.94859C6.3252 1.74755 6.05843 1.58517 5.7182 1.46145C5.3857 1.33773 5.00681 1.27587 4.58152 1.27587C3.66908 1.27587 2.90743 1.5929 2.29656 2.22697C1.69342 2.8533 1.39185 3.65748 1.39185 4.63951C1.39185 5.42823 1.64703 6.07003 2.15737 6.56491C2.66772 7.05979 3.34045 7.30723 4.17556 7.30723C5.11119 7.30723 5.86898 6.9786 6.44892 6.32133C6.69636 6.0275 6.88194 5.69887 7.00566 5.33544H5.59061L5.82259 4.05957H9.59219L9.36021 5.33544Z" fill="white"/>
  <path d="M12.5841 0.231975L11.3779 7.07525H15.4954L15.275 8.35112H9.82362L11.2503 0.231975H12.5841Z" fill="white"/>
  <path d="M20.1891 8.58309C18.9751 8.58309 17.9931 8.21967 17.243 7.49281C16.5007 6.75822 16.1295 5.80712 16.1295 4.63951C16.1295 3.36365 16.5858 2.27336 17.4982 1.36866C18.4184 0.456218 19.528 0 20.8271 0C22.0411 0 23.0192 0.367295 23.7615 1.10188C24.5116 1.82874 24.8866 2.77597 24.8866 3.94358C24.8866 5.21945 24.4265 6.3136 23.5064 7.22604C22.5939 8.13074 21.4882 8.58309 20.1891 8.58309ZM20.7111 1.27587C19.7986 1.27587 19.037 1.5929 18.4261 2.22697C17.823 2.8533 17.5214 3.65748 17.5214 4.63951C17.5214 5.42823 17.7766 6.07003 18.2869 6.56491C18.7973 7.05979 19.47 7.30723 20.3051 7.30723C21.2175 7.30723 21.9753 6.99406 22.5785 6.36773C23.1893 5.73366 23.4948 4.92561 23.4948 3.94358C23.4948 3.15487 23.2396 2.51307 22.7293 2.01819C22.2189 1.52331 21.5462 1.27587 20.7111 1.27587Z" fill="white"/>
  <path d="M29.817 4.7555H27.3813L26.9637 7.07525H29.817C30.2732 7.07525 30.6289 6.95927 30.8841 6.72729C31.1393 6.49531 31.2669 6.18601 31.2669 5.79939C31.2669 5.49009 31.1431 5.23878 30.8957 5.04547C30.6483 4.85215 30.2887 4.7555 29.817 4.7555ZM30.4549 1.50784H27.9496L27.59 3.53763H30.397C30.7449 3.53763 31.0233 3.43324 31.2321 3.22446C31.4486 3.00795 31.5568 2.72571 31.5568 2.37775C31.5568 2.13804 31.4563 1.93313 31.2553 1.76301C31.0542 1.5929 30.7874 1.50784 30.4549 1.50784ZM26.8361 0.231975H30.6289C31.3249 0.231975 31.8932 0.425288 32.3339 0.811914C32.7824 1.19081 33.0067 1.63543 33.0067 2.14577C33.0067 2.87263 32.7476 3.41777 32.2296 3.7812C32.0053 3.93585 31.7463 4.04411 31.4524 4.10597L31.4408 4.16396C31.6651 4.22582 31.8661 4.32634 32.044 4.46553C32.4538 4.7671 32.6587 5.21172 32.6587 5.79939C32.6587 6.57264 32.3997 7.19124 31.8816 7.65519C31.3635 8.11914 30.6367 8.35112 29.701 8.35112H25.4095L26.8361 0.231975Z" fill="white"/>
  <path d="M39.8857 0.231975L40.6048 8.35112H39.2361L39.0505 6.26334H35.3157L34.4226 8.35112H33.0656L36.58 0.231975H39.8857ZM37.3687 1.50784L35.8841 4.98747H38.9462L38.6446 1.50784H37.3687Z" fill="white"/>
  <path d="M44.2316 0.231975L43.0253 7.07525H47.1429L46.9225 8.35112H41.4711L42.8977 0.231975H44.2316Z" fill="white"/>
</svg>