<svg xmlns="http://www.w3.org/2000/svg" width="89" height="26" viewBox="0 0 89 26" fill="none">
  <path d="M14.743 0H19.2205L22.9699 25.7143H17.8008L16.9999 19.3038H8.66376L5.16914 25.7143H0L14.743 0ZM16.8907 15.7907L16.9817 0L10.2291 15.7907H16.8907Z" fill="white"/>
  <path d="M35.8574 0H44.8809L43.9344 4.38229H32.3948L31.0116 11.0101H42.7146L42.0003 15.0664H30.1379L27.8445 25.7143H22.8574L25.6058 12.8571L35.8574 0Z" fill="white"/>
  <path d="M60.9255 0H65.9126L60.4158 25.6781H55.4287L60.9255 0Z" fill="white"/>
  <path d="M71.674 13.0382L65.7768 0H71.2372L75.0958 9.56137L83.0316 0H88.4555L76.9888 13.0382L82.6675 25.7143H77.2436L73.6033 16.5151L66.0316 25.7143H60.5713L71.674 13.0382Z" fill="white"/>
  <path d="M44.6393 0H69.714L67.8569 4.38229H48.68L47.2967 11.0101H58.5711L57.714 15.0664H46.4231L44.1297 25.7143H39.1426L41.891 12.8571L44.6393 0Z" fill="white"/>
</svg>