<svg xmlns="http://www.w3.org/2000/svg" width="20" height="19" viewBox="0 0 20 19" fill="none">
  <path d="M16.4116 2.88411C14.851 1.30791 12.7785 0.341282 10.5679 0.158576C8.35735 -0.0241287 6.15426 0.589117 4.35604 1.8877C2.55781 3.18628 1.28282 5.08472 0.761037 7.24057C0.239259 9.39641 0.505044 11.6678 1.51045 13.6449L0.523518 18.4364C0.513278 18.4841 0.512988 18.5334 0.522666 18.5812C0.532345 18.629 0.551784 18.6743 0.579768 18.7142C0.620762 18.7749 0.679279 18.8215 0.747504 18.848C0.815729 18.8745 0.890414 18.8796 0.961586 18.8625L5.65761 17.7494C7.62919 18.7294 9.88451 18.9781 12.0222 18.4513C14.16 17.9245 16.0415 16.6563 17.332 14.8725C18.6224 13.0886 19.2382 10.9048 19.0697 8.70954C18.9011 6.51431 17.9592 4.45006 16.4116 2.88411ZM14.9474 14.5705C13.8676 15.6472 12.4771 16.358 10.972 16.6027C9.46682 16.8473 7.92283 16.6135 6.55761 15.9341L5.90306 15.6102L3.02409 16.2921L3.03261 16.2563L3.6292 13.3585L3.30875 12.7262C2.61118 11.3562 2.3651 9.80054 2.60577 8.28213C2.84643 6.76373 3.5615 5.36045 4.64852 4.27331C6.01438 2.90787 7.86663 2.14081 9.79795 2.14081C11.7293 2.14081 13.5815 2.90787 14.9474 4.27331C14.959 4.28665 14.9715 4.29918 14.9849 4.31081C16.3338 5.67977 17.0869 7.52649 17.0798 9.44837C17.0728 11.3702 16.3063 13.2114 14.9474 14.5705Z" fill="#29A71A"/>
  <path d="M14.6923 12.4447C14.3394 13.0004 13.7821 13.6805 13.0815 13.8492C11.8542 14.1458 9.97069 13.8595 7.62694 11.6742L7.59796 11.6487C5.53717 9.73787 5.00194 8.14753 5.13149 6.88617C5.20308 6.17026 5.79967 5.52253 6.30251 5.0998C6.38201 5.03195 6.47628 4.98365 6.57778 4.95874C6.67929 4.93384 6.78521 4.93304 6.88709 4.95639C6.98896 4.97975 7.08395 5.02662 7.16447 5.09325C7.24499 5.15989 7.3088 5.24444 7.3508 5.34014L8.10933 7.04469C8.15862 7.15521 8.17689 7.27707 8.16217 7.39719C8.14746 7.5173 8.10031 7.63115 8.0258 7.72651L7.64228 8.22423C7.55999 8.32701 7.51033 8.45205 7.4997 8.58328C7.48907 8.71451 7.51795 8.84592 7.58262 8.9606C7.7974 9.3373 8.31217 9.89128 8.88319 10.4043C9.5241 10.9839 10.2349 11.514 10.6849 11.6947C10.8053 11.7439 10.9377 11.7559 11.065 11.7291C11.1923 11.7024 11.3087 11.6382 11.3991 11.5447L11.844 11.0964C11.9298 11.0117 12.0366 10.9514 12.1534 10.9214C12.2701 10.8915 12.3928 10.893 12.5088 10.9259L14.3105 11.4373C14.4099 11.4678 14.5009 11.5206 14.5768 11.5917C14.6526 11.6628 14.7112 11.7503 14.7481 11.8475C14.7849 11.9447 14.799 12.049 14.7894 12.1526C14.7797 12.2561 14.7465 12.356 14.6923 12.4447Z" fill="#29A71A"/>
</svg>